<svg width="39" height="39" viewBox="0 0 39 39" fill="none" xmlns="http://www.w3.org/2000/svg">
<g clip-path="url(#clip0_17385_86)">
<path d="M30.4729 18.756C30.3872 18.7292 30.3045 18.7223 30.2246 18.7356C30.0525 18.764 29.9119 18.8551 29.8017 19.0093L28.7425 20.4881C28.6435 20.6268 28.608 20.7818 28.6364 20.9539L29.4693 25.9896C29.6136 26.8621 29.4271 27.6599 28.9082 28.3842C28.3898 29.1081 27.6942 29.5423 26.8217 29.6866L10.3255 32.4149C9.45302 32.5592 8.65476 32.3721 7.93084 31.8536C7.20672 31.3349 6.77278 30.6398 6.62845 29.7671L3.90025 13.2713C3.75597 12.3989 3.94294 11.6008 4.4615 10.8766C4.97994 10.1526 5.67546 9.71854 6.54798 9.57423L23.0443 6.84594C23.3352 6.79784 23.6391 6.78831 23.9562 6.81742C24.0399 6.83054 24.1016 6.83411 24.1407 6.82763C24.3128 6.79917 24.454 6.70812 24.5642 6.55412L25.3751 5.42189C25.5074 5.23728 25.5354 5.03559 25.4582 4.81769C25.3836 4.61272 25.2393 4.48033 25.0258 4.42069C24.2579 4.20867 23.4568 4.17085 22.6241 4.30857L6.12831 7.03677C4.55537 7.29692 3.30272 8.07784 2.37049 9.37953C1.43842 10.6813 1.10236 12.1185 1.36251 13.6915L4.09079 30.1878C4.3509 31.7605 5.13181 33.0131 6.43344 33.9453C7.73517 34.8778 9.17256 35.2138 10.7455 34.9537L27.2416 32.2254C28.8144 31.9653 30.0672 31.1844 30.9993 29.8824C31.9316 28.5807 32.2682 27.1434 32.0081 25.5706L30.9652 19.2652C30.9192 18.9878 30.7547 18.8183 30.4729 18.756Z" fill="#333333"/>
<path d="M33.5676 6.55211L31.0257 4.73165C30.656 4.46696 30.2528 4.37069 29.8165 4.44285C29.3807 4.51492 29.0297 4.73592 28.7652 5.1055L18.0585 20.0554L11.9818 15.7032C11.612 15.4383 11.209 15.3423 10.773 15.4144C10.3368 15.4865 9.98638 15.7072 9.7215 16.0771L7.90126 18.6187C7.6365 18.9884 7.54007 19.3914 7.61223 19.8278C7.68436 20.2639 7.90541 20.6143 8.27512 20.8792L18.2108 27.9948C18.5806 28.2597 18.9836 28.3557 19.4196 28.2836C19.8557 28.2115 20.2062 27.9909 20.4711 27.6209L33.9412 8.81238C34.2058 8.44279 34.3024 8.03962 34.2303 7.60351C34.1582 7.16739 33.9373 6.8168 33.5676 6.55211Z" fill="#333333"/>
</g>
<defs>
<clipPath id="clip0_17385_86">
<rect width="33.4206" height="33.4206" fill="white" transform="translate(0 5.45328) rotate(-9.391)"/>
</clipPath>
</defs>
</svg>
